<svg width="22" height="22" viewBox="0 0 22 22" fill="none" xmlns="http://www.w3.org/2000/svg">
<path d="M19.429 10.9719C19.429 15.6427 15.6425 19.4292 10.9716 19.4292V20.8007C16.4 20.8007 20.8004 16.4002 20.8004 10.9719H19.429ZM10.9716 19.4292C6.30077 19.4292 2.51428 15.6427 2.51428 10.9719H1.14282C1.14282 16.4002 5.54333 20.8007 10.9716 20.8007V19.4292ZM2.51428 10.9719C2.51428 6.30101 6.30077 2.51453 10.9716 2.51453V1.14307C5.54333 1.14307 1.14282 5.54357 1.14282 10.9719H2.51428ZM14.1717 13.0291C11.2682 13.0291 8.91444 10.6753 8.91444 7.7718H7.54297C7.54297 11.4328 10.5107 14.4005 14.1717 14.4005V13.0291ZM18.6749 10.4864C17.7532 12.0117 16.081 13.0291 14.1717 13.0291V14.4005C16.5808 14.4005 18.689 13.1149 19.8488 11.1956L18.6749 10.4864ZM8.91444 7.7718C8.91444 5.86256 9.93179 4.19027 11.4571 3.26853L10.7479 2.09472C8.82857 3.25448 7.54297 5.36268 7.54297 7.7718H8.91444ZM10.9716 2.51453C10.8907 2.51453 10.7958 2.47803 10.727 2.40635C10.6686 2.34563 10.6551 2.28818 10.6519 2.26495C10.6481 2.23646 10.65 2.1539 10.7479 2.09472L11.4571 3.26853C11.9172 2.99056 12.0651 2.48159 12.011 2.08139C11.9549 1.66537 11.6268 1.14307 10.9716 1.14307V2.51453ZM19.8488 11.1956C19.7896 11.2935 19.707 11.2954 19.6786 11.2916C19.6554 11.2884 19.5978 11.2749 19.5371 11.2165C19.4655 11.1477 19.429 11.0528 19.429 10.9719H20.8004C20.8004 10.3167 20.2781 9.98863 19.8621 9.93249C19.4619 9.87836 18.9529 10.0263 18.6749 10.4864L19.8488 11.1956Z" fill="black"/>
</svg>
