<svg width="26" height="26" viewBox="0 0 26 26" fill="none" xmlns="http://www.w3.org/2000/svg">
<path d="M12.7998 8.2168C15.331 8.2168 17.3835 10.2686 17.3838 12.7998C17.3838 15.3312 15.3312 17.3838 12.7998 17.3838C10.2686 17.3835 8.2168 15.331 8.2168 12.7998C8.21704 10.2688 10.2688 8.21704 12.7998 8.2168Z" stroke="black" stroke-width="1.5"/>
<path fill-rule="evenodd" clip-rule="evenodd" d="M12.8002 1.3335C13.242 1.3335 13.6002 1.69168 13.6002 2.13352V4.2669C13.6002 4.70873 13.242 5.06692 12.8002 5.06692C12.3584 5.06692 12.0002 4.70873 12.0002 4.2669V2.13352C12.0002 1.69168 12.3584 1.3335 12.8002 1.3335ZM3.91321 3.96406C4.21135 3.63797 4.71739 3.61531 5.04347 3.91345L7.41368 6.08053C7.73976 6.37867 7.76242 6.8847 7.46428 7.21079C7.16614 7.53688 6.6601 7.55953 6.33401 7.26139L3.96381 5.09432C3.63772 4.79618 3.61507 4.29014 3.91321 3.96406ZM21.6872 3.96406C21.9854 4.29014 21.9627 4.79618 21.6366 5.09432L19.2664 7.26139C18.9403 7.55953 18.4342 7.53688 18.1361 7.21079C17.838 6.8847 17.8606 6.37867 18.1867 6.08053L20.557 3.91345C20.8831 3.61531 21.389 3.63797 21.6872 3.96406ZM1.33325 12.8004C1.33325 12.3586 1.69144 12.0004 2.13327 12.0004H4.26666C4.70849 12.0004 5.06667 12.3586 5.06667 12.8004C5.06667 13.2423 4.70849 13.6005 4.26666 13.6005H2.13327C1.69144 13.6005 1.33325 13.2423 1.33325 12.8004ZM20.5337 12.8004C20.5337 12.3586 20.8919 12.0004 21.3337 12.0004H23.4671C23.9089 12.0004 24.2671 12.3586 24.2671 12.8004C24.2671 13.2423 23.9089 13.6005 23.4671 13.6005H21.3337C20.8919 13.6005 20.5337 13.2423 20.5337 12.8004ZM18.1609 18.1608C18.4733 17.8483 18.9799 17.8483 19.2923 18.1608L21.6625 20.5313C21.9749 20.8437 21.9748 21.3503 21.6624 21.6627C21.3499 21.9752 20.8434 21.9751 20.531 21.6626L18.1609 19.2921C17.8484 18.9797 17.8484 18.4732 18.1609 18.1608ZM7.43971 18.1609C7.75214 18.4733 7.75214 18.9799 7.43971 19.2923L5.06928 21.6627C4.75685 21.9752 4.25031 21.9752 3.93788 21.6627C3.62546 21.3503 3.62546 20.8437 3.93788 20.5314L6.30832 18.1609C6.62074 17.8485 7.12728 17.8485 7.43971 18.1609ZM12.8002 20.534C13.242 20.534 13.6002 20.8922 13.6002 21.334V23.4674C13.6002 23.9092 13.242 24.2674 12.8002 24.2674C12.3584 24.2674 12.0002 23.9092 12.0002 23.4674V21.334C12.0002 20.8922 12.3584 20.534 12.8002 20.534Z" fill="#1C274C"/>
</svg>
