<svg width="25" height="25" viewBox="0 0 25 25" fill="none" xmlns="http://www.w3.org/2000/svg">
<g clip-path="url(#clip0_177_884)">
<path d="M0.771447 18.5149H23.9148C24.1194 18.5149 24.3157 18.5961 24.4603 18.7408C24.605 18.8855 24.6863 19.0817 24.6863 19.2863C24.6863 19.4909 24.605 19.6871 24.4603 19.8318C24.3157 19.9765 24.1194 20.0578 23.9148 20.0578H0.771447C0.566846 20.0578 0.370626 19.9765 0.225951 19.8318C0.0812772 19.6871 0 19.4909 0 19.2863C0 19.0817 0.0812772 18.8855 0.225951 18.7408C0.370626 18.5961 0.566846 18.5149 0.771447 18.5149ZM3.89118 16.2005C4.08055 14.0897 5.05293 12.1261 6.61705 10.696C8.18117 9.2659 10.2238 8.47286 12.3431 8.47286C14.4625 8.47286 16.5051 9.2659 18.0692 10.696C19.6334 12.1261 20.6057 14.0897 20.7951 16.2005H19.2445C19.0575 14.5009 18.2498 12.93 16.9763 11.789C15.7028 10.6479 14.0531 10.0169 12.3431 10.0169C10.6332 10.0169 8.98346 10.6479 7.70996 11.789C6.43646 12.93 5.62881 14.5009 5.44178 16.2005H3.89118ZM12.3431 3.08594C12.5477 3.08594 12.744 3.16721 12.8886 3.31189C13.0333 3.45656 13.1146 3.65278 13.1146 3.85738V6.17172C13.1146 6.37632 13.0333 6.57254 12.8886 6.71722C12.744 6.86189 12.5477 6.94317 12.3431 6.94317C12.1385 6.94317 11.9423 6.86189 11.7977 6.71722C11.653 6.57254 11.5717 6.37632 11.5717 6.17172V3.85738C11.5717 3.65278 11.653 3.45656 11.7977 3.31189C11.9423 3.16721 12.1385 3.08594 12.3431 3.08594ZM22.1621 7.153C22.3067 7.29767 22.388 7.49386 22.388 7.69842C22.388 7.90298 22.3067 8.09916 22.1621 8.24383L20.5267 9.8793C20.4555 9.95298 20.3704 10.0117 20.2762 10.0522C20.1821 10.0926 20.0809 10.1139 19.9785 10.1148C19.876 10.1157 19.7744 10.0962 19.6796 10.0574C19.5848 10.0186 19.4987 9.96129 19.4263 9.88886C19.3538 9.81642 19.2965 9.73029 19.2578 9.63548C19.219 9.54068 19.1995 9.43909 19.2003 9.33666C19.2012 9.23423 19.2225 9.133 19.2629 9.03888C19.3034 8.94476 19.3621 8.85963 19.4358 8.78847L21.0713 7.153C21.216 7.00838 21.4121 6.92713 21.6167 6.92713C21.8213 6.92713 22.0175 7.00838 22.1621 7.153ZM2.52417 7.153C2.66884 7.00838 2.86503 6.92713 3.06959 6.92713C3.27415 6.92713 3.47033 7.00838 3.615 7.153L5.25047 8.78847C5.32415 8.85963 5.38292 8.94476 5.42335 9.03888C5.46378 9.133 5.48506 9.23423 5.48595 9.33666C5.48684 9.43909 5.46732 9.54068 5.42853 9.63548C5.38974 9.73029 5.33246 9.81642 5.26003 9.88886C5.18759 9.96129 5.10146 10.0186 5.00665 10.0574C4.91184 10.0962 4.81026 10.1157 4.70783 10.1148C4.6054 10.1139 4.50417 10.0926 4.41005 10.0522C4.31593 10.0117 4.2308 9.95298 4.15964 9.8793L2.52417 8.24383C2.37955 8.09916 2.2983 7.90298 2.2983 7.69842C2.2983 7.49386 2.37955 7.29767 2.52417 7.153Z" fill="black"/>
</g>
<defs>
<clipPath id="clip0_177_884">
<rect width="24.6863" height="24.6863" fill="white"/>
</clipPath>
</defs>
</svg>
